<svg viewBox="0 0 160 160" version="1.1" id="svg_null"><g id="root" stroke="none" stroke-width="1" fill="none" fill-rule="evenodd"><rect id="background.secondary" fill="#161c2e" x="0" y="0" width="160" height="160"></rect><g id="group" transform="translate(54.000000, 115.000000)"><rect id="Rectangle" x="0" y="1" width="52" height="14"></rect><text id="headerText.primary" font-family="Orbitron" font-size="7.847869442682798" font-weight="500" letter-spacing="NaN" fill="#ef6c35" data-text-alignment="C" font-style="normal"><tspan x="1.9475269317626953" y="11">Heroic Trio</tspan></text></g><rect id="icon.primary" x="67" y="32" width="26" height="26" display="none" fill="#ef6c35"></rect><svg xmlns="http://www.w3.org/2000/svg" xmlns:xlink="http://www.w3.org/1999/xlink" viewBox="0 0 50 50" version="1.1" fill="#ef6c35" id="svg_icon.primary" x="67" y="32" width="26" height="26"><g id="surface1"><path style=" " d="M 24 1 L 24 19 L 26 19 L 26 1 Z M 22 4.242188 C 12.824219 5.5625 5.558594 12.824219 4.234375 22 L 8.265625 22 C 9.515625 15.03125 15.027344 9.53125 22 8.28125 Z M 28 4.242188 L 28 8.28125 C 34.972656 9.527344 40.484375 15.03125 41.734375 22 L 45.765625 22 C 44.441406 12.824219 37.175781 5.5625 28 4.242188 Z M 22 13.394531 C 17.792969 14.484375 14.472656 17.796875 13.382813 22 L 17.609375 22 C 18.425781 20.003906 20.003906 18.402344 22 17.589844 Z M 28 13.394531 L 28 17.589844 C 30 18.402344 31.578125 20.003906 32.390625 22 L 36.621094 22 C 35.53125 17.796875 32.207031 14.484375 28 13.394531 Z M 25.003906 22 C 23.347656 22 22 23.34375 22 25 C 22 26.65625 23.347656 28 25.003906 28 C 26.660156 28 27.949219 26.65625 27.949219 25 C 27.949219 23.34375 26.660156 22 25.003906 22 Z M 1 24 L 1 26 L 19 26 L 19 24 Z M 31 24 L 31 26 L 49 26 L 49 24 Z M 4.242188 28 C 5.5625 37.175781 12.824219 44.441406 22 45.765625 L 22 41.734375 C 15.03125 40.484375 9.53125 34.972656 8.28125 28 Z M 13.378906 28 C 14.46875 32.203125 17.792969 35.515625 22 36.605469 L 22 32.410156 C 20 31.597656 18.421875 29.996094 17.609375 28 Z M 41.71875 28 C 40.46875 34.972656 34.96875 40.484375 28 41.734375 L 28 45.765625 C 37.175781 44.441406 44.4375 37.175781 45.761719 28 Z M 32.410156 28 C 31.597656 30 29.996094 31.578125 28 32.390625 L 28 36.621094 C 32.203125 35.53125 35.515625 32.207031 36.605469 28 Z M 24 31 L 24 49 L 26 49 L 26 31 Z "></path></g></svg><path d="M118.595 120.714l-36.743 -36.703l32.142 -32.105l5.754 -0.026l0.377 0.028l9.875 -9.864l-6.969 0.057l-9.151 9.141l-1.126 -1.125l9.151 -9.141l0.175 -6.843l-9.846 9.835c0.174 1.984 0.163 3.965 -0.047 5.91l-32.253 32.217l-32.14 -32.106l-0.027 -5.749l0.027 -0.376l-9.874 -9.864l0.057 6.961l9.151 9.142l-1.126 1.124l-9.151 -9.141l-6.851 -0.175l9.846 9.835c1.986 -0.173 3.97 -0.162 5.918 0.048l32.251 32.217l-36.743 36.701l-2.94 -6.264c-0.327 4.779 -2.347 10.999 -4.439 15.55c4.557 -2.089 10.784 -4.105 15.569 -4.433l-6.273 -2.938l36.745 -36.7l36.743 36.703l-6.272 2.936c4.785 0.327 11.012 2.344 15.567 4.434c-2.09 -4.552 -4.109 -10.772 -4.437 -15.551l-2.94 6.265z" id="shape.primary" fill="#ef6c35" fill-rule="nonzero" transform="translate(80.000000, 82.000000) scale(1, -1) translate(-80.000000, -82.000000)"></path><g id="group-3" transform="translate(113.000000, 71.000000)"><rect id="Rectangle-36" x="0" y="0" width="11" height="16"></rect><text id="headerInitial_1.primary" font-family="Orbitron" font-size="12.274054701243454" font-weight="500" letter-spacing="NaN" fill="#ef6c35" data-text-alignment="C" font-style="normal"><tspan x="0.27606964111328125" y="12.5">H</tspan></text></g><g id="group-3" transform="translate(35.000000, 71.000000)"><rect id="Rectangle-36" x="0" y="0" width="11" height="16"></rect><text id="headerInitial_1.primary" font-family="Orbitron" font-size="12.274054701243454" font-weight="500" letter-spacing="NaN" fill="#ef6c35" data-text-alignment="C" font-style="normal"><tspan x="0.27606964111328125" y="12.5">H</tspan></text></g></g></svg>